<mxfile host="app.diagrams.net" modified="2023-09-26T11:46:17.281Z" agent="Mozilla/5.0 (Macintosh; Intel Mac OS X 10_15_7) AppleWebKit/537.36 (KHTML, like Gecko) Chrome/117.0.0.0 Safari/537.36" version="21.8.2" etag="B7v7dilpCFDNTjD___IJ" type="github">
  <diagram name="第 1 页" id="lh-K7U2E8vzMdPaDZYfY">
    <mxGraphModel>
      <root>
        <mxCell id="0" />
        <mxCell id="1" parent="0" />
      </root>
    </mxGraphModel>
  </diagram>
</mxfile>
